{"accessors" : [{"bufferView" : 0, "byteOffset" : 0, "componentType" : 5123, "count" : 2187, "type" : "SCALAR", "max" : [2186], "min" : [0]}, {"bufferView" : 1, "byteOffset" : 0, "componentType" : 5126, "count" : 2187, "type" : "VEC3", "max" : [5.980004787445068, 1.929274320602417, 2.1153037548065186], "min" : [-3.997049331665039, -1.5071817636489868, -2.1153037548065186], "name" : "POSITION"}, {"bufferView" : 1, "byteOffset" : 12, "componentType" : 5126, "count" : 2187, "type" : "VEC3", "max" : [1.0000026226043701, 1.0000038146972656, 1.0000044107437134], "min" : [-0.9980420470237732, -0.9992889761924744, -1.0000044107437134], "name" : "NORMAL"}, {"bufferView" : 1, "byteOffset" : 24, "componentType" : 5126, "count" : 2187, "type" : "VEC2", "max" : [1.0000001192092896, -0], "min" : [0, -1], "name" : "TEXCOORD_0"}], "asset" : {"generator" : "Aspose.3D 22.7", "version" : "2.0"}, "buffers" : [{"uri" : "data:application/octet-stream;base64,", "byteLength" : 74368}], "bufferViews" : [{"buffer" : 0, "byteOffset" : 0, "byteLength" : 4376, "target" : 34963}, {"buffer" : 0, "byteOffset" : 4380, "byteLength" : 69984, "byteStride" : 32, "target" : 34962}], "materials" : [{"name" : "Skin", "pbrMetallicRoughness" : {"baseColorFactor" : [0.06997798383235931, 0.06997798383235931, 0.06997798383235931, 1], "metallicFactor" : 0, "roughnessFactor" : 0}, "emissiveFactor" : [0.06997798383235931, 0.06997798383235931, 0.06997798383235931], "alphaMode" : "OPAQUE", "doubleSided" : false}], "meshes" : [{"primitives" : [{"attributes" : {"POSITION" : 1, "NORMAL" : 2, "TEXCOORD_0" : 3}, "indices" : 0, "material" : 0, "mode" : 4}], "name" : "Plane.003"}], "nodes" : [{"matrix" : [-28.468204498280336, -3.548820954860567E-21, 2.4660625885262784E-05, 0, -1.0779501970135223E-12, 28.468204498290987, -1.2443847406505906E-06, 0, -2.466062588526276E-05, -1.2443847406510573E-06, -28.468204498280308, 0, 0, 11.157068252563477, 1.4990508816481452E-06, 1], "mesh" : 0, "name" : "Shark.000"}], "scene" : 0, "scenes" : [{"nodes" : [0]}]}